<svg xmlns="http://www.w3.org/2000/svg" viewBox="0 0 500 500"><defs><style>.cls-1{fill:#fef7e5;}.cls-2{fill:#443330;}.cls-3{fill:#55423d;}.cls-4{fill:#ef81ad;}.cls-5{fill:#088080;}.cls-6{fill:#ec5f4d;}.cls-7{fill:#ea5244;}.cls-8{fill:#da376e;}.cls-9{fill:#4f4f9d;}.cls-10{fill:#38b07c;}.cls-11{fill:#6e559f;}.cls-12{fill:#064066;}.cls-13{fill:#fde24e;}.cls-14{fill:#d1d0e8;}.cls-15{fill:#f1871a;}.cls-16{fill:#96569e;}.cls-17{fill:#c5e1c5;}.cls-18{fill:#8fd0da;}.cls-19{fill:#ffd800;}.cls-20{fill:#9e86bd;}</style></defs><g id="Capa_5" data-name="Capa 5"><rect class="cls-1" x="15.32053" y="11.29909" width="470.50792" height="475.10385"/></g><g id="Capa_3" data-name="Capa 3"><path class="cls-2" d="M250.00415,381.35533h1.227a17.38232,17.38232,0,0,1,17.38232,17.38232V477.9089a0,0,0,0,1,0,0h-37.227a0,0,0,0,1,0,0V399.973A18.61765,18.61765,0,0,1,250.00415,381.35533Z"/><path class="cls-2" d="M333.41031,381.35533h1.227a17.38232,17.38232,0,0,1,17.38232,17.38232V477.9089a0,0,0,0,1,0,0h-37.227a0,0,0,0,1,0,0V399.973A18.61765,18.61765,0,0,1,333.41031,381.35533Z"/><path class="cls-2" d="M166.598,381.35533h1.227a17.38232,17.38232,0,0,1,17.38232,17.38232V477.9089a0,0,0,0,1,0,0h-37.227a0,0,0,0,1,0,0V399.973A18.61765,18.61765,0,0,1,166.598,381.35533Z"/><path class="cls-2" d="M416.81648,381.35533h1.227a17.38232,17.38232,0,0,1,17.38232,17.38232V477.9089a0,0,0,0,1,0,0h-37.227a0,0,0,0,1,0,0V399.973A18.61765,18.61765,0,0,1,416.81648,381.35533Z"/><path class="cls-2" d="M83.19182,381.35533h1.227a17.38232,17.38232,0,0,1,17.38232,17.38232V477.9089a0,0,0,0,1,0,0h-37.227a0,0,0,0,1,0,0V399.973A18.61765,18.61765,0,0,1,83.19182,381.35533Z"/><circle class="cls-2" cx="83.18767" cy="313.56571" r="18.6135"/><circle class="cls-2" cx="166.59384" cy="313.56571" r="18.6135"/><circle class="cls-2" cx="250" cy="313.56571" r="18.6135"/><circle class="cls-2" cx="333.40616" cy="313.56571" r="18.6135"/><circle class="cls-2" cx="416.81233" cy="313.56571" r="18.6135"/><circle class="cls-2" cx="124.89075" cy="256.34136" r="18.6135"/><circle class="cls-2" cx="208.29692" cy="256.34136" r="18.6135"/><circle class="cls-2" cx="291.70308" cy="256.34136" r="18.6135"/><circle class="cls-2" cx="375.10925" cy="256.34136" r="18.6135"/><circle class="cls-2" cx="166.59384" cy="199.11702" r="18.6135"/><circle class="cls-2" cx="250" cy="199.11702" r="18.6135"/><circle class="cls-2" cx="333.40616" cy="199.11702" r="18.6135"/><circle class="cls-2" cx="208.29692" cy="141.89267" r="18.6135"/><circle class="cls-2" cx="291.70308" cy="141.89267" r="18.6135"/><circle class="cls-2" cx="250" cy="84.66832" r="18.6135"/></g><g id="Capa_2" data-name="Capa 2"><path class="cls-3" d="M495.25353,19.9061A38.38694,38.38694,0,0,0,461.59413,0H38.40587A38.39508,38.39508,0,0,0,0,38.40587V461.59413c0,.67212.0207,1.35465.05169,2.01647A38.39281,38.39281,0,0,0,38.40587,500H461.59413A38.39508,38.39508,0,0,0,500,461.59413V38.40587A38.11744,38.11744,0,0,0,495.25353,19.9061ZM476.9089,449.11274a27.8033,27.8033,0,0,1-27.79616,27.79616H50.88726A27.8033,27.8033,0,0,1,23.0911,449.11274V50.88726A27.8033,27.8033,0,0,1,50.88726,23.0911H449.11274A27.78558,27.78558,0,0,1,476.9089,50.88726Z"/></g><g id="Capa_4" data-name="Capa 4"><circle class="cls-4" cx="213.4463" cy="116.17745" r="8.21184"/><circle class="cls-4" cx="379.90529" cy="449.14553" r="8.21184"/><circle class="cls-4" cx="447.04659" cy="461.20983" r="8.21184"/><circle class="cls-5" cx="197.89526" cy="461.20983" r="8.21184"/><circle class="cls-6" cx="135.29242" cy="465.5692" r="8.21184"/><circle class="cls-7" cx="213.4463" cy="428.86938" r="8.21184"/><circle class="cls-7" cx="285.03718" cy="452.998" r="8.21184"/><circle class="cls-7" cx="222.14058" cy="412.44571" r="8.21184"/><circle class="cls-7" cx="360.2315" cy="444.78616" r="8.21184"/><circle class="cls-8" cx="213.4463" cy="467.35351" r="8.21184"/><circle class="cls-9" cx="235.12226" cy="176.97547" r="8.21184"/><circle class="cls-10" cx="458.60801" cy="449.14553" r="8.21184"/><circle class="cls-10" cx="388.11713" cy="468.44842" r="8.21184"/><circle class="cls-10" cx="366.89741" cy="465.5692" r="8.21184"/><circle class="cls-10" cx="289.51326" cy="432.72185" r="8.21184"/><circle class="cls-11" cx="314.79266" cy="174.24579" r="8.21184"/><circle class="cls-11" cx="276.82534" cy="416.29817" r="8.21184"/><circle class="cls-11" cx="221.65814" cy="392.16956" r="8.21184"/><circle class="cls-11" cx="301.46085" cy="444.78616" r="8.21184"/><circle class="cls-11" cx="301.46085" cy="396.3059" r="8.21184"/><circle class="cls-12" cx="250" cy="52.42165" r="8.21184"/><circle class="cls-13" cx="281.30142" cy="229.51603" r="8.21184"/><circle class="cls-14" cx="318.52842" cy="256.34136" r="8.21184"/><circle class="cls-8" cx="289.51326" cy="380.35533" r="8.21184"/><circle class="cls-15" cx="197.89526" cy="440.93369" r="8.21184"/><circle class="cls-16" cx="276.82534" cy="468.44842" r="8.21184"/><circle class="cls-16" cx="197.89526" cy="420.65755" r="8.21184"/><circle class="cls-16" cx="44.61956" cy="468.44842" r="8.21184"/><circle class="cls-17" cx="135.29242" cy="437.08122" r="8.21184"/><circle class="cls-17" cx="297.7251" cy="415.54796" r="8.21184"/><circle class="cls-18" cx="122.70093" cy="452.998" r="8.21184"/><circle class="cls-18" cx="281.30142" cy="396.02203" r="8.21184"/><circle class="cls-19" cx="218.69858" cy="449.14553" r="8.21184"/><circle class="cls-19" cx="297.7251" cy="465.5692" r="8.21184"/><circle class="cls-19" cx="205.23446" cy="400.3814" r="8.21184"/><circle class="cls-20" cx="114.48909" cy="468.44842" r="8.21184"/></g></svg>